<svg id="visual" viewBox="0 0 1920 1080" width="1920" height="1080" xmlns="http://www.w3.org/2000/svg" xmlns:xlink="http://www.w3.org/1999/xlink" version="1.1"><rect x="0" y="0" width="1920" height="1080" fill="#001220"></rect><path d="M0 737L29.2 706C58.3 675 116.7 613 174.8 574C233 535 291 519 349.2 520C407.3 521 465.7 539 523.8 535.3C582 531.7 640 506.3 698.2 533.5C756.3 560.7 814.7 640.3 872.8 648.8C931 657.3 989 594.7 1047.2 586.2C1105.3 577.7 1163.7 623.3 1221.8 651C1280 678.7 1338 688.3 1396.2 657.7C1454.3 627 1512.7 556 1570.8 535.7C1629 515.3 1687 545.7 1745.2 579.2C1803.3 612.7 1861.7 649.3 1890.8 667.7L1920 686L1920 1081L1890.8 1081C1861.7 1081 1803.3 1081 1745.2 1081C1687 1081 1629 1081 1570.8 1081C1512.7 1081 1454.3 1081 1396.2 1081C1338 1081 1280 1081 1221.8 1081C1163.7 1081 1105.3 1081 1047.2 1081C989 1081 931 1081 872.8 1081C814.7 1081 756.3 1081 698.2 1081C640 1081 582 1081 523.8 1081C465.7 1081 407.3 1081 349.2 1081C291 1081 233 1081 174.8 1081C116.7 1081 58.3 1081 29.2 1081L0 1081Z" fill="#715df2"></path><path d="M0 548L29.2 570.5C58.3 593 116.7 638 174.8 643.8C233 649.7 291 616.3 349.2 603.2C407.3 590 465.7 597 523.8 624.5C582 652 640 700 698.2 709.7C756.3 719.3 814.7 690.7 872.8 659.7C931 628.7 989 595.3 1047.2 608.7C1105.3 622 1163.7 682 1221.8 683.8C1280 685.7 1338 629.3 1396.2 628.2C1454.3 627 1512.7 681 1570.8 690.7C1629 700.3 1687 665.7 1745.2 653C1803.3 640.3 1861.7 649.7 1890.8 654.3L1920 659L1920 1081L1890.8 1081C1861.7 1081 1803.3 1081 1745.2 1081C1687 1081 1629 1081 1570.8 1081C1512.7 1081 1454.3 1081 1396.2 1081C1338 1081 1280 1081 1221.8 1081C1163.7 1081 1105.3 1081 1047.2 1081C989 1081 931 1081 872.8 1081C814.7 1081 756.3 1081 698.2 1081C640 1081 582 1081 523.8 1081C465.7 1081 407.3 1081 349.2 1081C291 1081 233 1081 174.8 1081C116.7 1081 58.3 1081 29.2 1081L0 1081Z" fill="#944fdf"></path><path d="M0 806L29.2 797.5C58.3 789 116.7 772 174.8 740.7C233 709.3 291 663.7 349.2 666.8C407.3 670 465.7 722 523.8 756.7C582 791.3 640 808.7 698.2 783C756.3 757.3 814.7 688.7 872.8 689.3C931 690 989 760 1047.2 791.3C1105.3 822.7 1163.7 815.3 1221.8 781.3C1280 747.3 1338 686.7 1396.2 682.2C1454.3 677.7 1512.7 729.3 1570.8 734.5C1629 739.7 1687 698.3 1745.2 689.2C1803.3 680 1861.7 703 1890.8 714.5L1920 726L1920 1081L1890.8 1081C1861.7 1081 1803.3 1081 1745.2 1081C1687 1081 1629 1081 1570.8 1081C1512.7 1081 1454.3 1081 1396.2 1081C1338 1081 1280 1081 1221.8 1081C1163.7 1081 1105.3 1081 1047.2 1081C989 1081 931 1081 872.8 1081C814.7 1081 756.3 1081 698.2 1081C640 1081 582 1081 523.8 1081C465.7 1081 407.3 1081 349.2 1081C291 1081 233 1081 174.8 1081C116.7 1081 58.3 1081 29.2 1081L0 1081Z" fill="#ab41ca"></path><path d="M0 733L29.2 728.7C58.3 724.3 116.7 715.7 174.8 716.2C233 716.7 291 726.3 349.2 745.5C407.3 764.7 465.7 793.3 523.8 784.8C582 776.3 640 730.7 698.2 723C756.3 715.3 814.7 745.7 872.8 755.3C931 765 989 754 1047.2 745.5C1105.3 737 1163.7 731 1221.8 723.8C1280 716.7 1338 708.3 1396.2 723C1454.3 737.7 1512.7 775.3 1570.8 784.5C1629 793.7 1687 774.3 1745.2 752.7C1803.3 731 1861.7 707 1890.8 695L1920 683L1920 1081L1890.8 1081C1861.7 1081 1803.3 1081 1745.2 1081C1687 1081 1629 1081 1570.8 1081C1512.7 1081 1454.3 1081 1396.2 1081C1338 1081 1280 1081 1221.8 1081C1163.7 1081 1105.3 1081 1047.2 1081C989 1081 931 1081 872.8 1081C814.7 1081 756.3 1081 698.2 1081C640 1081 582 1081 523.8 1081C465.7 1081 407.3 1081 349.2 1081C291 1081 233 1081 174.8 1081C116.7 1081 58.3 1081 29.2 1081L0 1081Z" fill="#ba33b5"></path><path d="M0 900L29.2 875C58.3 850 116.7 800 174.8 784.5C233 769 291 788 349.2 807C407.3 826 465.7 845 523.8 849.8C582 854.7 640 845.3 698.2 845.8C756.3 846.3 814.7 856.7 872.8 848C931 839.3 989 811.7 1047.2 803.2C1105.3 794.7 1163.7 805.3 1221.8 810.3C1280 815.3 1338 814.7 1396.2 812C1454.3 809.3 1512.7 804.7 1570.8 802.2C1629 799.7 1687 799.3 1745.2 800.8C1803.3 802.3 1861.7 805.7 1890.8 807.3L1920 809L1920 1081L1890.8 1081C1861.7 1081 1803.3 1081 1745.2 1081C1687 1081 1629 1081 1570.8 1081C1512.7 1081 1454.3 1081 1396.2 1081C1338 1081 1280 1081 1221.8 1081C1163.7 1081 1105.3 1081 1047.2 1081C989 1081 931 1081 872.8 1081C814.7 1081 756.3 1081 698.2 1081C640 1081 582 1081 523.8 1081C465.7 1081 407.3 1081 349.2 1081C291 1081 233 1081 174.8 1081C116.7 1081 58.3 1081 29.2 1081L0 1081Z" fill="#c4269f"></path><path d="M0 935L29.2 936.7C58.3 938.3 116.7 941.7 174.8 934.2C233 926.7 291 908.3 349.2 901.2C407.3 894 465.7 898 523.8 887C582 876 640 850 698.2 842.3C756.3 834.7 814.7 845.3 872.8 852.8C931 860.3 989 864.7 1047.2 882.2C1105.3 899.7 1163.7 930.3 1221.8 938.2C1280 946 1338 931 1396.2 912C1454.3 893 1512.7 870 1570.8 868.2C1629 866.3 1687 885.7 1745.2 883.7C1803.3 881.7 1861.7 858.3 1890.8 846.7L1920 835L1920 1081L1890.8 1081C1861.7 1081 1803.3 1081 1745.2 1081C1687 1081 1629 1081 1570.8 1081C1512.7 1081 1454.3 1081 1396.2 1081C1338 1081 1280 1081 1221.8 1081C1163.7 1081 1105.3 1081 1047.2 1081C989 1081 931 1081 872.8 1081C814.7 1081 756.3 1081 698.2 1081C640 1081 582 1081 523.8 1081C465.7 1081 407.3 1081 349.2 1081C291 1081 233 1081 174.8 1081C116.7 1081 58.3 1081 29.2 1081L0 1081Z" fill="#ca1b8b"></path><path d="M0 1010L29.2 988.5C58.3 967 116.7 924 174.8 906C233 888 291 895 349.2 904.2C407.3 913.3 465.7 924.7 523.8 943.2C582 961.7 640 987.3 698.2 981C756.3 974.7 814.7 936.3 872.8 922.8C931 909.3 989 920.7 1047.2 936.3C1105.3 952 1163.7 972 1221.8 978.8C1280 985.7 1338 979.3 1396.2 968.5C1454.3 957.7 1512.7 942.3 1570.8 932C1629 921.7 1687 916.3 1745.2 913.2C1803.3 910 1861.7 909 1890.8 908.5L1920 908L1920 1081L1890.8 1081C1861.7 1081 1803.3 1081 1745.2 1081C1687 1081 1629 1081 1570.8 1081C1512.7 1081 1454.3 1081 1396.2 1081C1338 1081 1280 1081 1221.8 1081C1163.7 1081 1105.3 1081 1047.2 1081C989 1081 931 1081 872.8 1081C814.7 1081 756.3 1081 698.2 1081C640 1081 582 1081 523.8 1081C465.7 1081 407.3 1081 349.2 1081C291 1081 233 1081 174.8 1081C116.7 1081 58.3 1081 29.2 1081L0 1081Z" fill="#cc1677"></path><path d="M0 1030L29.2 1023.8C58.3 1017.7 116.7 1005.3 174.8 996C233 986.7 291 980.3 349.2 977.2C407.3 974 465.7 974 523.8 981.7C582 989.3 640 1004.7 698.2 1002.5C756.3 1000.3 814.7 980.7 872.8 980.7C931 980.7 989 1000.3 1047.2 1001.8C1105.3 1003.3 1163.7 986.7 1221.8 988.3C1280 990 1338 1010 1396.2 1015.2C1454.3 1020.3 1512.7 1010.7 1570.8 1000.7C1629 990.7 1687 980.3 1745.2 973.7C1803.3 967 1861.7 964 1890.8 962.5L1920 961L1920 1081L1890.8 1081C1861.7 1081 1803.3 1081 1745.2 1081C1687 1081 1629 1081 1570.8 1081C1512.7 1081 1454.3 1081 1396.2 1081C1338 1081 1280 1081 1221.8 1081C1163.7 1081 1105.3 1081 1047.2 1081C989 1081 931 1081 872.8 1081C814.7 1081 756.3 1081 698.2 1081C640 1081 582 1081 523.8 1081C465.7 1081 407.3 1081 349.2 1081C291 1081 233 1081 174.8 1081C116.7 1081 58.3 1081 29.2 1081L0 1081Z" fill="#ca1a64"></path></svg>